<svg preserveAspectRatio="none" overflow="visible" style="display: block;" width="232" height="189.368" viewBox="0 0 232 189.368" fill="none" xmlns="http://www.w3.org/2000/svg">
<g id="Union">
<mask id="path-1-inside-1_0_4" fill="white">
<path fill-rule="evenodd" clip-rule="evenodd" d="M212.858 1.14506C211.657 -0.381688 209.343 -0.381685 208.142 1.14506L200.764 10.5237H0V189.368H232V10.5237H220.236L212.858 1.14506Z"/>
</mask>
<path fill-rule="evenodd" clip-rule="evenodd" d="M212.858 1.14506C211.657 -0.381688 209.343 -0.381685 208.142 1.14506L200.764 10.5237H0V189.368H232V10.5237H220.236L212.858 1.14506Z" fill="white"/>
<path d="M208.142 1.14506L207.356 0.526745V0.526748L208.142 1.14506ZM212.858 1.14506L212.072 1.76337V1.76337L212.858 1.14506ZM200.764 10.5237V11.5237H201.249L201.55 11.142L200.764 10.5237ZM0 10.5237V9.52372H-1V10.5237H0ZM0 189.368H-1V190.368H0V189.368ZM232 189.368V190.368H233V189.368H232ZM232 10.5237H233V9.52372H232V10.5237ZM220.236 10.5237L219.45 11.142L219.751 11.5237H220.236V10.5237ZM208.142 1.14506L208.928 1.76338C209.729 0.745538 211.271 0.745546 212.072 1.76337L212.858 1.14506L213.644 0.526747C212.042 -1.50892 208.958 -1.50891 207.356 0.526745L208.142 1.14506ZM200.764 10.5237L201.55 11.142L208.928 1.76338L208.142 1.14506L207.356 0.526748L199.978 9.90541L200.764 10.5237ZM0 10.5237V11.5237H200.764V10.5237V9.52372H0V10.5237ZM0 189.368H1V10.5237H0H-1V189.368H0ZM232 189.368V188.368H0V189.368V190.368H232V189.368ZM232 10.5237H231V189.368H232H233V10.5237H232ZM220.236 10.5237V11.5237H232V10.5237V9.52372H220.236V10.5237ZM212.858 1.14506L212.072 1.76337L219.45 11.142L220.236 10.5237L221.022 9.90541L213.644 0.526745L212.858 1.14506Z" fill="black" fill-opacity="0.2" mask="url(#path-1-inside-1_0_4)"/>
</g>
</svg>
